<?xml version="1.0" encoding="utf-8" standalone="no"?>
<!DOCTYPE svg PUBLIC "-//W3C//DTD SVG 1.1//EN"
  "http://www.w3.org/Graphics/SVG/1.1/DTD/svg11.dtd">
<!-- Created with matplotlib (https://matplotlib.org/) -->
<svg height="702.71pt" version="1.1" viewBox="0 0 558.853438 702.71" width="558.853438pt" xmlns="http://www.w3.org/2000/svg" xmlns:xlink="http://www.w3.org/1999/xlink">
 <defs>
  <style type="text/css">
*{stroke-linecap:butt;stroke-linejoin:round;}
  </style>
 </defs>
 <g id="figure_1">
  <g id="patch_1">
   <path d="M 0 702.71 
L 558.853438 702.71 
L 558.853438 0 
L 0 0 
z
" style="fill:#ffffff;"/>
  </g>
  <g id="axes_1">
   <g id="patch_2">
    <path d="M 130.135781 672.48 
L 409.135781 672.48 
L 409.135781 7.2 
L 130.135781 7.2 
z
" style="fill:#eaeaf2;"/>
   </g>
   <g id="matplotlib.axis_1">
    <g id="xtick_1">
     <g id="line2d_1">
      <path clip-path="url(#paefa51f008)" d="M 200.848516 672.48 
L 200.848516 7.2 
" style="fill:none;stroke:#ffffff;stroke-linecap:round;"/>
     </g>
     <g id="text_1">
      <!-- $\mathdefault{10^{1}}$ -->
      <defs>
       <path d="M 37.25 0 
L 28.46875 0 
L 28.46875 56 
Q 25.296875 52.984375 20.140625 49.953125 
Q 14.984375 46.921875 10.890625 45.40625 
L 10.890625 53.90625 
Q 18.265625 57.375 23.78125 62.296875 
Q 29.296875 67.234375 31.59375 71.875 
L 37.25 71.875 
z
" id="ArialMT-49"/>
       <path d="M 4.15625 35.296875 
Q 4.15625 48 6.765625 55.734375 
Q 9.375 63.484375 14.515625 67.671875 
Q 19.671875 71.875 27.484375 71.875 
Q 33.25 71.875 37.59375 69.546875 
Q 41.9375 67.234375 44.765625 62.859375 
Q 47.609375 58.5 49.21875 52.21875 
Q 50.828125 45.953125 50.828125 35.296875 
Q 50.828125 22.703125 48.234375 14.96875 
Q 45.65625 7.234375 40.5 3 
Q 35.359375 -1.21875 27.484375 -1.21875 
Q 17.140625 -1.21875 11.234375 6.203125 
Q 4.15625 15.140625 4.15625 35.296875 
z
M 13.1875 35.296875 
Q 13.1875 17.671875 17.3125 11.828125 
Q 21.4375 6 27.484375 6 
Q 33.546875 6 37.671875 11.859375 
Q 41.796875 17.71875 41.796875 35.296875 
Q 41.796875 52.984375 37.671875 58.78125 
Q 33.546875 64.59375 27.390625 64.59375 
Q 21.34375 64.59375 17.71875 59.46875 
Q 13.1875 52.9375 13.1875 35.296875 
z
" id="ArialMT-48"/>
      </defs>
      <g style="fill:#262626;" transform="translate(192.213516 693.32375)scale(0.11 -0.11)">
       <use transform="translate(0 0.99375)" xlink:href="#ArialMT-49"/>
       <use transform="translate(55.615234 0.99375)" xlink:href="#ArialMT-48"/>
       <use transform="translate(112.972813 70.6875)scale(0.7)" xlink:href="#ArialMT-49"/>
      </g>
     </g>
    </g>
    <g id="xtick_2">
     <g id="line2d_2">
      <path clip-path="url(#paefa51f008)" d="M 283.871988 672.48 
L 283.871988 7.2 
" style="fill:none;stroke:#ffffff;stroke-linecap:round;"/>
     </g>
     <g id="text_2">
      <!-- $\mathdefault{10^{2}}$ -->
      <defs>
       <path d="M 50.34375 8.453125 
L 50.34375 0 
L 3.03125 0 
Q 2.9375 3.171875 4.046875 6.109375 
Q 5.859375 10.9375 9.828125 15.625 
Q 13.8125 20.3125 21.34375 26.46875 
Q 33.015625 36.03125 37.109375 41.625 
Q 41.21875 47.21875 41.21875 52.203125 
Q 41.21875 57.421875 37.46875 61 
Q 33.734375 64.59375 27.734375 64.59375 
Q 21.390625 64.59375 17.578125 60.78125 
Q 13.765625 56.984375 13.71875 50.25 
L 4.6875 51.171875 
Q 5.609375 61.28125 11.65625 66.578125 
Q 17.71875 71.875 27.9375 71.875 
Q 38.234375 71.875 44.234375 66.15625 
Q 50.25 60.453125 50.25 52 
Q 50.25 47.703125 48.484375 43.546875 
Q 46.734375 39.40625 42.65625 34.8125 
Q 38.578125 30.21875 29.109375 22.21875 
Q 21.1875 15.578125 18.9375 13.203125 
Q 16.703125 10.84375 15.234375 8.453125 
z
" id="ArialMT-50"/>
      </defs>
      <g style="fill:#262626;" transform="translate(275.236988 693.32375)scale(0.11 -0.11)">
       <use transform="translate(0 0.99375)" xlink:href="#ArialMT-49"/>
       <use transform="translate(55.615234 0.99375)" xlink:href="#ArialMT-48"/>
       <use transform="translate(112.972813 70.6875)scale(0.7)" xlink:href="#ArialMT-50"/>
      </g>
     </g>
    </g>
    <g id="xtick_3">
     <g id="line2d_3">
      <path clip-path="url(#paefa51f008)" d="M 366.89546 672.48 
L 366.89546 7.2 
" style="fill:none;stroke:#ffffff;stroke-linecap:round;"/>
     </g>
     <g id="text_3">
      <!-- $\mathdefault{10^{3}}$ -->
      <defs>
       <path d="M 4.203125 18.890625 
L 12.984375 20.0625 
Q 14.5 12.59375 18.140625 9.296875 
Q 21.78125 6 27 6 
Q 33.203125 6 37.46875 10.296875 
Q 41.75 14.59375 41.75 20.953125 
Q 41.75 27 37.796875 30.921875 
Q 33.84375 34.859375 27.734375 34.859375 
Q 25.25 34.859375 21.53125 33.890625 
L 22.515625 41.609375 
Q 23.390625 41.5 23.921875 41.5 
Q 29.546875 41.5 34.03125 44.421875 
Q 38.53125 47.359375 38.53125 53.46875 
Q 38.53125 58.296875 35.25 61.46875 
Q 31.984375 64.65625 26.8125 64.65625 
Q 21.6875 64.65625 18.265625 61.421875 
Q 14.84375 58.203125 13.875 51.765625 
L 5.078125 53.328125 
Q 6.6875 62.15625 12.390625 67.015625 
Q 18.109375 71.875 26.609375 71.875 
Q 32.46875 71.875 37.390625 69.359375 
Q 42.328125 66.84375 44.9375 62.5 
Q 47.5625 58.15625 47.5625 53.265625 
Q 47.5625 48.640625 45.0625 44.828125 
Q 42.578125 41.015625 37.703125 38.765625 
Q 44.046875 37.3125 47.5625 32.6875 
Q 51.078125 28.078125 51.078125 21.140625 
Q 51.078125 11.765625 44.234375 5.25 
Q 37.40625 -1.265625 26.953125 -1.265625 
Q 17.53125 -1.265625 11.296875 4.34375 
Q 5.078125 9.96875 4.203125 18.890625 
z
" id="ArialMT-51"/>
      </defs>
      <g style="fill:#262626;" transform="translate(358.26046 693.32375)scale(0.11 -0.11)">
       <use transform="translate(0 0.99375)" xlink:href="#ArialMT-49"/>
       <use transform="translate(55.615234 0.99375)" xlink:href="#ArialMT-48"/>
       <use transform="translate(112.972813 70.6875)scale(0.7)" xlink:href="#ArialMT-51"/>
      </g>
     </g>
    </g>
    <g id="xtick_4"/>
    <g id="xtick_5"/>
    <g id="xtick_6"/>
    <g id="xtick_7"/>
    <g id="xtick_8"/>
    <g id="xtick_9"/>
    <g id="xtick_10"/>
    <g id="xtick_11"/>
    <g id="xtick_12"/>
    <g id="xtick_13"/>
    <g id="xtick_14"/>
    <g id="xtick_15"/>
    <g id="xtick_16"/>
    <g id="xtick_17"/>
    <g id="xtick_18"/>
    <g id="xtick_19"/>
    <g id="xtick_20"/>
    <g id="xtick_21"/>
    <g id="xtick_22"/>
    <g id="xtick_23"/>
    <g id="xtick_24"/>
    <g id="xtick_25"/>
    <g id="xtick_26"/>
    <g id="xtick_27"/>
    <g id="xtick_28"/>
    <g id="xtick_29"/>
   </g>
   <g id="matplotlib.axis_2">
    <g id="ytick_1">
     <g id="line2d_4">
      <path clip-path="url(#paefa51f008)" d="M 130.135781 644.76 
L 409.135781 644.76 
" style="fill:none;stroke:#ffffff;stroke-linecap:round;"/>
     </g>
     <g id="text_4">
      <!-- initial sequence -->
      <defs>
       <path d="M 6.640625 61.46875 
L 6.640625 71.578125 
L 15.4375 71.578125 
L 15.4375 61.46875 
z
M 6.640625 0 
L 6.640625 51.859375 
L 15.4375 51.859375 
L 15.4375 0 
z
" id="ArialMT-105"/>
       <path d="M 6.59375 0 
L 6.59375 51.859375 
L 14.5 51.859375 
L 14.5 44.484375 
Q 20.21875 53.03125 31 53.03125 
Q 35.6875 53.03125 39.625 51.34375 
Q 43.5625 49.65625 45.515625 46.921875 
Q 47.46875 44.1875 48.25 40.4375 
Q 48.734375 37.984375 48.734375 31.890625 
L 48.734375 0 
L 39.9375 0 
L 39.9375 31.546875 
Q 39.9375 36.921875 38.90625 39.578125 
Q 37.890625 42.234375 35.28125 43.8125 
Q 32.671875 45.40625 29.15625 45.40625 
Q 23.53125 45.40625 19.453125 41.84375 
Q 15.375 38.28125 15.375 28.328125 
L 15.375 0 
z
" id="ArialMT-110"/>
       <path d="M 25.78125 7.859375 
L 27.046875 0.09375 
Q 23.34375 -0.6875 20.40625 -0.6875 
Q 15.625 -0.6875 12.984375 0.828125 
Q 10.359375 2.34375 9.28125 4.8125 
Q 8.203125 7.28125 8.203125 15.1875 
L 8.203125 45.015625 
L 1.765625 45.015625 
L 1.765625 51.859375 
L 8.203125 51.859375 
L 8.203125 64.703125 
L 16.9375 69.96875 
L 16.9375 51.859375 
L 25.78125 51.859375 
L 25.78125 45.015625 
L 16.9375 45.015625 
L 16.9375 14.703125 
Q 16.9375 10.9375 17.40625 9.859375 
Q 17.875 8.796875 18.921875 8.15625 
Q 19.96875 7.515625 21.921875 7.515625 
Q 23.390625 7.515625 25.78125 7.859375 
z
" id="ArialMT-116"/>
       <path d="M 40.4375 6.390625 
Q 35.546875 2.25 31.03125 0.53125 
Q 26.515625 -1.171875 21.34375 -1.171875 
Q 12.796875 -1.171875 8.203125 3 
Q 3.609375 7.171875 3.609375 13.671875 
Q 3.609375 17.484375 5.34375 20.625 
Q 7.078125 23.78125 9.890625 25.6875 
Q 12.703125 27.59375 16.21875 28.5625 
Q 18.796875 29.25 24.03125 29.890625 
Q 34.671875 31.15625 39.703125 32.90625 
Q 39.75 34.71875 39.75 35.203125 
Q 39.75 40.578125 37.25 42.78125 
Q 33.890625 45.75 27.25 45.75 
Q 21.046875 45.75 18.09375 43.578125 
Q 15.140625 41.40625 13.71875 35.890625 
L 5.125 37.0625 
Q 6.296875 42.578125 8.984375 45.96875 
Q 11.671875 49.359375 16.75 51.1875 
Q 21.828125 53.03125 28.515625 53.03125 
Q 35.15625 53.03125 39.296875 51.46875 
Q 43.453125 49.90625 45.40625 47.53125 
Q 47.359375 45.171875 48.140625 41.546875 
Q 48.578125 39.3125 48.578125 33.453125 
L 48.578125 21.734375 
Q 48.578125 9.46875 49.140625 6.21875 
Q 49.703125 2.984375 51.375 0 
L 42.1875 0 
Q 40.828125 2.734375 40.4375 6.390625 
z
M 39.703125 26.03125 
Q 34.90625 24.078125 25.34375 22.703125 
Q 19.921875 21.921875 17.671875 20.9375 
Q 15.4375 19.96875 14.203125 18.09375 
Q 12.984375 16.21875 12.984375 13.921875 
Q 12.984375 10.40625 15.640625 8.0625 
Q 18.3125 5.71875 23.4375 5.71875 
Q 28.515625 5.71875 32.46875 7.9375 
Q 36.421875 10.15625 38.28125 14.015625 
Q 39.703125 17 39.703125 22.796875 
z
" id="ArialMT-97"/>
       <path d="M 6.390625 0 
L 6.390625 71.578125 
L 15.1875 71.578125 
L 15.1875 0 
z
" id="ArialMT-108"/>
       <path id="ArialMT-32"/>
       <path d="M 3.078125 15.484375 
L 11.765625 16.84375 
Q 12.5 11.625 15.84375 8.84375 
Q 19.1875 6.0625 25.203125 6.0625 
Q 31.25 6.0625 34.171875 8.515625 
Q 37.109375 10.984375 37.109375 14.3125 
Q 37.109375 17.28125 34.515625 19 
Q 32.71875 20.171875 25.53125 21.96875 
Q 15.875 24.421875 12.140625 26.203125 
Q 8.40625 27.984375 6.46875 31.125 
Q 4.546875 34.28125 4.546875 38.09375 
Q 4.546875 41.546875 6.125 44.5 
Q 7.71875 47.46875 10.453125 49.421875 
Q 12.5 50.921875 16.03125 51.96875 
Q 19.578125 53.03125 23.640625 53.03125 
Q 29.734375 53.03125 34.34375 51.265625 
Q 38.96875 49.515625 41.15625 46.5 
Q 43.359375 43.5 44.1875 38.484375 
L 35.59375 37.3125 
Q 35.015625 41.3125 32.203125 43.546875 
Q 29.390625 45.796875 24.265625 45.796875 
Q 18.21875 45.796875 15.625 43.796875 
Q 13.03125 41.796875 13.03125 39.109375 
Q 13.03125 37.40625 14.109375 36.03125 
Q 15.1875 34.625 17.484375 33.6875 
Q 18.796875 33.203125 25.25 31.453125 
Q 34.578125 28.953125 38.25 27.359375 
Q 41.9375 25.78125 44.03125 22.75 
Q 46.140625 19.734375 46.140625 15.234375 
Q 46.140625 10.84375 43.578125 6.953125 
Q 41.015625 3.078125 36.171875 0.953125 
Q 31.34375 -1.171875 25.25 -1.171875 
Q 15.140625 -1.171875 9.84375 3.03125 
Q 4.546875 7.234375 3.078125 15.484375 
z
" id="ArialMT-115"/>
       <path d="M 42.09375 16.703125 
L 51.171875 15.578125 
Q 49.03125 7.625 43.21875 3.21875 
Q 37.40625 -1.171875 28.375 -1.171875 
Q 17 -1.171875 10.328125 5.828125 
Q 3.65625 12.84375 3.65625 25.484375 
Q 3.65625 38.578125 10.390625 45.796875 
Q 17.140625 53.03125 27.875 53.03125 
Q 38.28125 53.03125 44.875 45.953125 
Q 51.46875 38.875 51.46875 26.03125 
Q 51.46875 25.25 51.421875 23.6875 
L 12.75 23.6875 
Q 13.234375 15.140625 17.578125 10.59375 
Q 21.921875 6.0625 28.421875 6.0625 
Q 33.25 6.0625 36.671875 8.59375 
Q 40.09375 11.140625 42.09375 16.703125 
z
M 13.234375 30.90625 
L 42.1875 30.90625 
Q 41.609375 37.453125 38.875 40.71875 
Q 34.671875 45.796875 27.984375 45.796875 
Q 21.921875 45.796875 17.796875 41.75 
Q 13.671875 37.703125 13.234375 30.90625 
z
" id="ArialMT-101"/>
       <path d="M 39.65625 -19.875 
L 39.65625 5.515625 
Q 37.59375 2.640625 33.90625 0.734375 
Q 30.21875 -1.171875 26.078125 -1.171875 
Q 16.84375 -1.171875 10.171875 6.203125 
Q 3.515625 13.578125 3.515625 26.421875 
Q 3.515625 34.234375 6.21875 40.421875 
Q 8.9375 46.625 14.078125 49.828125 
Q 19.234375 53.03125 25.390625 53.03125 
Q 35.015625 53.03125 40.53125 44.921875 
L 40.53125 51.859375 
L 48.4375 51.859375 
L 48.4375 -19.875 
z
M 12.546875 26.078125 
Q 12.546875 16.0625 16.75 11.0625 
Q 20.953125 6.0625 26.8125 6.0625 
Q 32.421875 6.0625 36.46875 10.8125 
Q 40.53125 15.578125 40.53125 25.296875 
Q 40.53125 35.640625 36.25 40.859375 
Q 31.984375 46.09375 26.21875 46.09375 
Q 20.515625 46.09375 16.53125 41.234375 
Q 12.546875 36.375 12.546875 26.078125 
z
" id="ArialMT-113"/>
       <path d="M 40.578125 0 
L 40.578125 7.625 
Q 34.515625 -1.171875 24.125 -1.171875 
Q 19.53125 -1.171875 15.546875 0.578125 
Q 11.578125 2.34375 9.640625 5 
Q 7.71875 7.671875 6.9375 11.53125 
Q 6.390625 14.109375 6.390625 19.734375 
L 6.390625 51.859375 
L 15.1875 51.859375 
L 15.1875 23.09375 
Q 15.1875 16.21875 15.71875 13.8125 
Q 16.546875 10.359375 19.234375 8.375 
Q 21.921875 6.390625 25.875 6.390625 
Q 29.828125 6.390625 33.296875 8.421875 
Q 36.765625 10.453125 38.203125 13.9375 
Q 39.65625 17.4375 39.65625 24.078125 
L 39.65625 51.859375 
L 48.4375 51.859375 
L 48.4375 0 
z
" id="ArialMT-117"/>
       <path d="M 40.4375 19 
L 49.078125 17.875 
Q 47.65625 8.9375 41.8125 3.875 
Q 35.984375 -1.171875 27.484375 -1.171875 
Q 16.84375 -1.171875 10.375 5.78125 
Q 3.90625 12.75 3.90625 25.734375 
Q 3.90625 34.125 6.6875 40.421875 
Q 9.46875 46.734375 15.15625 49.875 
Q 20.84375 53.03125 27.546875 53.03125 
Q 35.984375 53.03125 41.359375 48.75 
Q 46.734375 44.484375 48.25 36.625 
L 39.703125 35.296875 
Q 38.484375 40.53125 35.375 43.15625 
Q 32.28125 45.796875 27.875 45.796875 
Q 21.234375 45.796875 17.078125 41.03125 
Q 12.9375 36.28125 12.9375 25.984375 
Q 12.9375 15.53125 16.9375 10.796875 
Q 20.953125 6.0625 27.390625 6.0625 
Q 32.5625 6.0625 36.03125 9.234375 
Q 39.5 12.40625 40.4375 19 
z
" id="ArialMT-99"/>
      </defs>
      <g style="fill:#262626;" transform="translate(44.811406 648.696797)scale(0.11 -0.11)">
       <use xlink:href="#ArialMT-105"/>
       <use x="22.216797" xlink:href="#ArialMT-110"/>
       <use x="77.832031" xlink:href="#ArialMT-105"/>
       <use x="100.048828" xlink:href="#ArialMT-116"/>
       <use x="127.832031" xlink:href="#ArialMT-105"/>
       <use x="150.048828" xlink:href="#ArialMT-97"/>
       <use x="205.664062" xlink:href="#ArialMT-108"/>
       <use x="227.880859" xlink:href="#ArialMT-32"/>
       <use x="255.664062" xlink:href="#ArialMT-115"/>
       <use x="305.664062" xlink:href="#ArialMT-101"/>
       <use x="361.279297" xlink:href="#ArialMT-113"/>
       <use x="416.894531" xlink:href="#ArialMT-117"/>
       <use x="472.509766" xlink:href="#ArialMT-101"/>
       <use x="528.125" xlink:href="#ArialMT-110"/>
       <use x="583.740234" xlink:href="#ArialMT-99"/>
       <use x="633.740234" xlink:href="#ArialMT-101"/>
      </g>
     </g>
    </g>
    <g id="ytick_2">
     <g id="line2d_5">
      <path clip-path="url(#paefa51f008)" d="M 130.135781 589.32 
L 409.135781 589.32 
" style="fill:none;stroke:#ffffff;stroke-linecap:round;"/>
     </g>
     <g id="text_5">
      <!-- ~gc(39%) 5x -->
      <defs>
       <path d="M 4.25 27.203125 
L 4.25 37.203125 
Q 9.421875 43.0625 17.828125 43.0625 
Q 20.75 43.0625 23.96875 42.203125 
Q 27.203125 41.359375 33.15625 38.8125 
Q 36.53125 37.40625 38.203125 36.96875 
Q 39.890625 36.53125 41.609375 36.53125 
Q 44.78125 36.53125 48.171875 38.421875 
Q 51.5625 40.328125 54.203125 43.21875 
L 54.203125 32.859375 
Q 51.078125 29.9375 47.875 28.609375 
Q 44.671875 27.296875 40.671875 27.296875 
Q 37.75 27.296875 35.078125 27.96875 
Q 32.421875 28.65625 26.625 31.25 
Q 20.84375 33.84375 17 33.84375 
Q 13.875 33.84375 11.109375 32.5 
Q 8.34375 31.15625 4.25 27.203125 
z
" id="ArialMT-126"/>
       <path d="M 4.984375 -4.296875 
L 13.53125 -5.5625 
Q 14.0625 -9.515625 16.5 -11.328125 
Q 19.78125 -13.765625 25.4375 -13.765625 
Q 31.546875 -13.765625 34.859375 -11.328125 
Q 38.1875 -8.890625 39.359375 -4.5 
Q 40.046875 -1.8125 39.984375 6.78125 
Q 34.234375 0 25.640625 0 
Q 14.9375 0 9.078125 7.71875 
Q 3.21875 15.4375 3.21875 26.21875 
Q 3.21875 33.640625 5.90625 39.90625 
Q 8.59375 46.1875 13.6875 49.609375 
Q 18.796875 53.03125 25.6875 53.03125 
Q 34.859375 53.03125 40.828125 45.609375 
L 40.828125 51.859375 
L 48.921875 51.859375 
L 48.921875 7.03125 
Q 48.921875 -5.078125 46.453125 -10.125 
Q 44 -15.1875 38.640625 -18.109375 
Q 33.296875 -21.046875 25.484375 -21.046875 
Q 16.21875 -21.046875 10.5 -16.875 
Q 4.78125 -12.703125 4.984375 -4.296875 
z
M 12.25 26.859375 
Q 12.25 16.65625 16.296875 11.96875 
Q 20.359375 7.28125 26.46875 7.28125 
Q 32.515625 7.28125 36.609375 11.9375 
Q 40.71875 16.609375 40.71875 26.5625 
Q 40.71875 36.078125 36.5 40.90625 
Q 32.28125 45.75 26.3125 45.75 
Q 20.453125 45.75 16.34375 40.984375 
Q 12.25 36.234375 12.25 26.859375 
z
" id="ArialMT-103"/>
       <path d="M 23.390625 -21.046875 
Q 16.109375 -11.859375 11.078125 0.4375 
Q 6.0625 12.75 6.0625 25.921875 
Q 6.0625 37.546875 9.8125 48.1875 
Q 14.203125 60.546875 23.390625 72.796875 
L 29.6875 72.796875 
Q 23.78125 62.640625 21.875 58.296875 
Q 18.890625 51.5625 17.1875 44.234375 
Q 15.09375 35.109375 15.09375 25.875 
Q 15.09375 2.390625 29.6875 -21.046875 
z
" id="ArialMT-40"/>
       <path d="M 5.46875 16.546875 
L 13.921875 17.328125 
Q 14.984375 11.375 18.015625 8.6875 
Q 21.046875 6 25.78125 6 
Q 29.828125 6 32.875 7.859375 
Q 35.9375 9.71875 37.890625 12.8125 
Q 39.84375 15.921875 41.15625 21.1875 
Q 42.484375 26.46875 42.484375 31.9375 
Q 42.484375 32.515625 42.4375 33.6875 
Q 39.796875 29.5 35.234375 26.875 
Q 30.671875 24.265625 25.34375 24.265625 
Q 16.453125 24.265625 10.296875 30.703125 
Q 4.15625 37.15625 4.15625 47.703125 
Q 4.15625 58.59375 10.578125 65.234375 
Q 17 71.875 26.65625 71.875 
Q 33.640625 71.875 39.421875 68.109375 
Q 45.21875 64.359375 48.21875 57.390625 
Q 51.21875 50.4375 51.21875 37.25 
Q 51.21875 23.53125 48.234375 15.40625 
Q 45.265625 7.28125 39.375 3.03125 
Q 33.5 -1.21875 25.59375 -1.21875 
Q 17.1875 -1.21875 11.859375 3.4375 
Q 6.546875 8.109375 5.46875 16.546875 
z
M 41.453125 48.140625 
Q 41.453125 55.71875 37.421875 60.15625 
Q 33.40625 64.59375 27.734375 64.59375 
Q 21.875 64.59375 17.53125 59.8125 
Q 13.1875 55.03125 13.1875 47.40625 
Q 13.1875 40.578125 17.3125 36.296875 
Q 21.4375 32.03125 27.484375 32.03125 
Q 33.59375 32.03125 37.515625 36.296875 
Q 41.453125 40.578125 41.453125 48.140625 
z
" id="ArialMT-57"/>
       <path d="M 5.8125 54.390625 
Q 5.8125 62.0625 9.671875 67.421875 
Q 13.53125 72.796875 20.84375 72.796875 
Q 27.59375 72.796875 32 67.984375 
Q 36.421875 63.1875 36.421875 53.859375 
Q 36.421875 44.78125 31.953125 39.875 
Q 27.484375 34.96875 20.953125 34.96875 
Q 14.453125 34.96875 10.125 39.796875 
Q 5.8125 44.625 5.8125 54.390625 
z
M 21.09375 66.75 
Q 17.828125 66.75 15.65625 63.90625 
Q 13.484375 61.078125 13.484375 53.515625 
Q 13.484375 46.625 15.671875 43.8125 
Q 17.875 41.015625 21.09375 41.015625 
Q 24.421875 41.015625 26.59375 43.84375 
Q 28.765625 46.6875 28.765625 54.203125 
Q 28.765625 61.140625 26.5625 63.9375 
Q 24.359375 66.75 21.09375 66.75 
z
M 21.140625 -2.640625 
L 60.296875 72.796875 
L 67.4375 72.796875 
L 28.421875 -2.640625 
z
M 52.09375 16.796875 
Q 52.09375 24.515625 55.953125 29.859375 
Q 59.8125 35.203125 67.1875 35.203125 
Q 73.921875 35.203125 78.34375 30.390625 
Q 82.765625 25.59375 82.765625 16.265625 
Q 82.765625 7.171875 78.296875 2.265625 
Q 73.828125 -2.640625 67.234375 -2.640625 
Q 60.75 -2.640625 56.421875 2.21875 
Q 52.09375 7.078125 52.09375 16.796875 
z
M 67.4375 29.15625 
Q 64.109375 29.15625 61.9375 26.3125 
Q 59.765625 23.484375 59.765625 15.921875 
Q 59.765625 9.078125 61.953125 6.25 
Q 64.15625 3.421875 67.390625 3.421875 
Q 70.75 3.421875 72.921875 6.25 
Q 75.09375 9.078125 75.09375 16.609375 
Q 75.09375 23.53125 72.890625 26.34375 
Q 70.703125 29.15625 67.4375 29.15625 
z
" id="ArialMT-37"/>
       <path d="M 12.359375 -21.046875 
L 6.0625 -21.046875 
Q 20.65625 2.390625 20.65625 25.875 
Q 20.65625 35.0625 18.5625 44.09375 
Q 16.890625 51.421875 13.921875 58.15625 
Q 12.015625 62.546875 6.0625 72.796875 
L 12.359375 72.796875 
Q 21.53125 60.546875 25.921875 48.1875 
Q 29.6875 37.546875 29.6875 25.921875 
Q 29.6875 12.75 24.625 0.4375 
Q 19.578125 -11.859375 12.359375 -21.046875 
z
" id="ArialMT-41"/>
       <path d="M 4.15625 18.75 
L 13.375 19.53125 
Q 14.40625 12.796875 18.140625 9.390625 
Q 21.875 6 27.15625 6 
Q 33.5 6 37.890625 10.78125 
Q 42.28125 15.578125 42.28125 23.484375 
Q 42.28125 31 38.0625 35.34375 
Q 33.84375 39.703125 27 39.703125 
Q 22.75 39.703125 19.328125 37.765625 
Q 15.921875 35.84375 13.96875 32.765625 
L 5.71875 33.84375 
L 12.640625 70.609375 
L 48.25 70.609375 
L 48.25 62.203125 
L 19.671875 62.203125 
L 15.828125 42.96875 
Q 22.265625 47.46875 29.34375 47.46875 
Q 38.71875 47.46875 45.15625 40.96875 
Q 51.609375 34.46875 51.609375 24.265625 
Q 51.609375 14.546875 45.953125 7.46875 
Q 39.0625 -1.21875 27.15625 -1.21875 
Q 17.390625 -1.21875 11.203125 4.25 
Q 5.03125 9.71875 4.15625 18.75 
z
" id="ArialMT-53"/>
       <path d="M 0.734375 0 
L 19.671875 26.953125 
L 2.15625 51.859375 
L 13.140625 51.859375 
L 21.09375 39.703125 
Q 23.34375 36.234375 24.703125 33.890625 
Q 26.859375 37.109375 28.65625 39.59375 
L 37.40625 51.859375 
L 47.90625 51.859375 
L 29.984375 27.4375 
L 49.265625 0 
L 38.484375 0 
L 27.828125 16.109375 
L 25 20.453125 
L 11.375 0 
z
" id="ArialMT-120"/>
      </defs>
      <g style="fill:#262626;" transform="translate(58.580313 593.323828)scale(0.11 -0.11)">
       <use xlink:href="#ArialMT-126"/>
       <use x="58.398438" xlink:href="#ArialMT-103"/>
       <use x="114.013672" xlink:href="#ArialMT-99"/>
       <use x="164.013672" xlink:href="#ArialMT-40"/>
       <use x="197.314453" xlink:href="#ArialMT-51"/>
       <use x="252.929688" xlink:href="#ArialMT-57"/>
       <use x="308.544922" xlink:href="#ArialMT-37"/>
       <use x="397.460938" xlink:href="#ArialMT-41"/>
       <use x="430.761719" xlink:href="#ArialMT-32"/>
       <use x="458.544922" xlink:href="#ArialMT-53"/>
       <use x="514.160156" xlink:href="#ArialMT-120"/>
      </g>
     </g>
    </g>
    <g id="ytick_3">
     <g id="line2d_6">
      <path clip-path="url(#paefa51f008)" d="M 130.135781 533.88 
L 409.135781 533.88 
" style="fill:none;stroke:#ffffff;stroke-linecap:round;"/>
     </g>
     <g id="text_6">
      <!-- ~unique_kmers 5x -->
      <defs>
       <path d="M -1.515625 -19.875 
L -1.515625 -13.53125 
L 56.734375 -13.53125 
L 56.734375 -19.875 
z
" id="ArialMT-95"/>
       <path d="M 6.640625 0 
L 6.640625 71.578125 
L 15.4375 71.578125 
L 15.4375 30.765625 
L 36.234375 51.859375 
L 47.609375 51.859375 
L 27.78125 32.625 
L 49.609375 0 
L 38.765625 0 
L 21.625 26.515625 
L 15.4375 20.5625 
L 15.4375 0 
z
" id="ArialMT-107"/>
       <path d="M 6.59375 0 
L 6.59375 51.859375 
L 14.453125 51.859375 
L 14.453125 44.578125 
Q 16.890625 48.390625 20.9375 50.703125 
Q 25 53.03125 30.171875 53.03125 
Q 35.9375 53.03125 39.625 50.640625 
Q 43.3125 48.25 44.828125 43.953125 
Q 50.984375 53.03125 60.84375 53.03125 
Q 68.5625 53.03125 72.703125 48.75 
Q 76.859375 44.484375 76.859375 35.59375 
L 76.859375 0 
L 68.109375 0 
L 68.109375 32.671875 
Q 68.109375 37.9375 67.25 40.25 
Q 66.40625 42.578125 64.15625 43.984375 
Q 61.921875 45.40625 58.890625 45.40625 
Q 53.421875 45.40625 49.796875 41.765625 
Q 46.1875 38.140625 46.1875 30.125 
L 46.1875 0 
L 37.40625 0 
L 37.40625 33.6875 
Q 37.40625 39.546875 35.25 42.46875 
Q 33.109375 45.40625 28.21875 45.40625 
Q 24.515625 45.40625 21.359375 43.453125 
Q 18.21875 41.5 16.796875 37.734375 
Q 15.375 33.984375 15.375 26.90625 
L 15.375 0 
z
" id="ArialMT-109"/>
       <path d="M 6.5 0 
L 6.5 51.859375 
L 14.40625 51.859375 
L 14.40625 44 
Q 17.4375 49.515625 20 51.265625 
Q 22.5625 53.03125 25.640625 53.03125 
Q 30.078125 53.03125 34.671875 50.203125 
L 31.640625 42.046875 
Q 28.421875 43.953125 25.203125 43.953125 
Q 22.3125 43.953125 20.015625 42.21875 
Q 17.71875 40.484375 16.75 37.40625 
Q 15.28125 32.71875 15.28125 27.15625 
L 15.28125 0 
z
" id="ArialMT-114"/>
      </defs>
      <g style="fill:#262626;" transform="translate(30.449531 537.816797)scale(0.11 -0.11)">
       <use xlink:href="#ArialMT-126"/>
       <use x="58.398438" xlink:href="#ArialMT-117"/>
       <use x="114.013672" xlink:href="#ArialMT-110"/>
       <use x="169.628906" xlink:href="#ArialMT-105"/>
       <use x="191.845703" xlink:href="#ArialMT-113"/>
       <use x="247.460938" xlink:href="#ArialMT-117"/>
       <use x="303.076172" xlink:href="#ArialMT-101"/>
       <use x="358.691406" xlink:href="#ArialMT-95"/>
       <use x="414.306641" xlink:href="#ArialMT-107"/>
       <use x="464.306641" xlink:href="#ArialMT-109"/>
       <use x="547.607422" xlink:href="#ArialMT-101"/>
       <use x="603.222656" xlink:href="#ArialMT-114"/>
       <use x="636.523438" xlink:href="#ArialMT-115"/>
       <use x="686.523438" xlink:href="#ArialMT-32"/>
       <use x="714.306641" xlink:href="#ArialMT-53"/>
       <use x="769.921875" xlink:href="#ArialMT-120"/>
      </g>
     </g>
    </g>
    <g id="ytick_4">
     <g id="line2d_7">
      <path clip-path="url(#paefa51f008)" d="M 130.135781 478.44 
L 409.135781 478.44 
" style="fill:none;stroke:#ffffff;stroke-linecap:round;"/>
     </g>
     <g id="text_7">
      <!-- ~codon_optimize 5x -->
      <defs>
       <path d="M 3.328125 25.921875 
Q 3.328125 40.328125 11.328125 47.265625 
Q 18.015625 53.03125 27.640625 53.03125 
Q 38.328125 53.03125 45.109375 46.015625 
Q 51.90625 39.015625 51.90625 26.65625 
Q 51.90625 16.65625 48.90625 10.90625 
Q 45.90625 5.171875 40.15625 2 
Q 34.421875 -1.171875 27.640625 -1.171875 
Q 16.75 -1.171875 10.03125 5.8125 
Q 3.328125 12.796875 3.328125 25.921875 
z
M 12.359375 25.921875 
Q 12.359375 15.96875 16.703125 11.015625 
Q 21.046875 6.0625 27.640625 6.0625 
Q 34.1875 6.0625 38.53125 11.03125 
Q 42.875 16.015625 42.875 26.21875 
Q 42.875 35.84375 38.5 40.796875 
Q 34.125 45.75 27.640625 45.75 
Q 21.046875 45.75 16.703125 40.8125 
Q 12.359375 35.890625 12.359375 25.921875 
z
" id="ArialMT-111"/>
       <path d="M 40.234375 0 
L 40.234375 6.546875 
Q 35.296875 -1.171875 25.734375 -1.171875 
Q 19.53125 -1.171875 14.328125 2.25 
Q 9.125 5.671875 6.265625 11.796875 
Q 3.421875 17.921875 3.421875 25.875 
Q 3.421875 33.640625 6 39.96875 
Q 8.59375 46.296875 13.765625 49.65625 
Q 18.953125 53.03125 25.34375 53.03125 
Q 30.03125 53.03125 33.6875 51.046875 
Q 37.359375 49.078125 39.65625 45.90625 
L 39.65625 71.578125 
L 48.390625 71.578125 
L 48.390625 0 
z
M 12.453125 25.875 
Q 12.453125 15.921875 16.640625 10.984375 
Q 20.84375 6.0625 26.5625 6.0625 
Q 32.328125 6.0625 36.34375 10.765625 
Q 40.375 15.484375 40.375 25.140625 
Q 40.375 35.796875 36.265625 40.765625 
Q 32.171875 45.75 26.171875 45.75 
Q 20.3125 45.75 16.375 40.96875 
Q 12.453125 36.1875 12.453125 25.875 
z
" id="ArialMT-100"/>
       <path d="M 6.59375 -19.875 
L 6.59375 51.859375 
L 14.59375 51.859375 
L 14.59375 45.125 
Q 17.4375 49.078125 21 51.046875 
Q 24.5625 53.03125 29.640625 53.03125 
Q 36.28125 53.03125 41.359375 49.609375 
Q 46.4375 46.1875 49.015625 39.953125 
Q 51.609375 33.734375 51.609375 26.3125 
Q 51.609375 18.359375 48.75 11.984375 
Q 45.90625 5.609375 40.453125 2.21875 
Q 35.015625 -1.171875 29 -1.171875 
Q 24.609375 -1.171875 21.109375 0.6875 
Q 17.625 2.546875 15.375 5.375 
L 15.375 -19.875 
z
M 14.546875 25.640625 
Q 14.546875 15.625 18.59375 10.84375 
Q 22.65625 6.0625 28.421875 6.0625 
Q 34.28125 6.0625 38.453125 11.015625 
Q 42.625 15.96875 42.625 26.375 
Q 42.625 36.28125 38.546875 41.203125 
Q 34.46875 46.140625 28.8125 46.140625 
Q 23.1875 46.140625 18.859375 40.890625 
Q 14.546875 35.640625 14.546875 25.640625 
z
" id="ArialMT-112"/>
       <path d="M 1.953125 0 
L 1.953125 7.125 
L 34.96875 45.015625 
Q 29.34375 44.734375 25.046875 44.734375 
L 3.90625 44.734375 
L 3.90625 51.859375 
L 46.296875 51.859375 
L 46.296875 46.046875 
L 18.21875 13.140625 
L 12.796875 7.125 
Q 18.703125 7.5625 23.875 7.5625 
L 47.859375 7.5625 
L 47.859375 0 
z
" id="ArialMT-122"/>
      </defs>
      <g style="fill:#262626;" transform="translate(22.495156 482.376797)scale(0.11 -0.11)">
       <use xlink:href="#ArialMT-126"/>
       <use x="58.398438" xlink:href="#ArialMT-99"/>
       <use x="108.398438" xlink:href="#ArialMT-111"/>
       <use x="164.013672" xlink:href="#ArialMT-100"/>
       <use x="219.628906" xlink:href="#ArialMT-111"/>
       <use x="275.244141" xlink:href="#ArialMT-110"/>
       <use x="330.859375" xlink:href="#ArialMT-95"/>
       <use x="386.474609" xlink:href="#ArialMT-111"/>
       <use x="442.089844" xlink:href="#ArialMT-112"/>
       <use x="497.705078" xlink:href="#ArialMT-116"/>
       <use x="525.488281" xlink:href="#ArialMT-105"/>
       <use x="547.705078" xlink:href="#ArialMT-109"/>
       <use x="631.005859" xlink:href="#ArialMT-105"/>
       <use x="653.222656" xlink:href="#ArialMT-122"/>
       <use x="703.222656" xlink:href="#ArialMT-101"/>
       <use x="758.837891" xlink:href="#ArialMT-32"/>
       <use x="786.621094" xlink:href="#ArialMT-53"/>
       <use x="842.236328" xlink:href="#ArialMT-120"/>
      </g>
     </g>
    </g>
    <g id="ytick_5">
     <g id="line2d_8">
      <path clip-path="url(#paefa51f008)" d="M 130.135781 423 
L 409.135781 423 
" style="fill:none;stroke:#ffffff;stroke-linecap:round;"/>
     </g>
     <g id="text_8">
      <!-- ~no(CG) 5x -->
      <defs>
       <path d="M 58.796875 25.09375 
L 68.265625 22.703125 
Q 65.28125 11.03125 57.546875 4.90625 
Q 49.8125 -1.21875 38.625 -1.21875 
Q 27.046875 -1.21875 19.796875 3.484375 
Q 12.546875 8.203125 8.765625 17.140625 
Q 4.984375 26.078125 4.984375 36.328125 
Q 4.984375 47.515625 9.25 55.828125 
Q 13.53125 64.15625 21.40625 68.46875 
Q 29.296875 72.796875 38.765625 72.796875 
Q 49.515625 72.796875 56.828125 67.328125 
Q 64.15625 61.859375 67.046875 51.953125 
L 57.71875 49.75 
Q 55.21875 57.5625 50.484375 61.125 
Q 45.75 64.703125 38.578125 64.703125 
Q 30.328125 64.703125 24.78125 60.734375 
Q 19.234375 56.78125 16.984375 50.109375 
Q 14.75 43.453125 14.75 36.375 
Q 14.75 27.25 17.40625 20.4375 
Q 20.0625 13.625 25.671875 10.25 
Q 31.296875 6.890625 37.84375 6.890625 
Q 45.796875 6.890625 51.3125 11.46875 
Q 56.84375 16.0625 58.796875 25.09375 
z
" id="ArialMT-67"/>
       <path d="M 41.21875 28.078125 
L 41.21875 36.46875 
L 71.53125 36.53125 
L 71.53125 9.96875 
Q 64.546875 4.390625 57.125 1.578125 
Q 49.703125 -1.21875 41.890625 -1.21875 
Q 31.34375 -1.21875 22.71875 3.296875 
Q 14.109375 7.8125 9.71875 16.359375 
Q 5.328125 24.90625 5.328125 35.453125 
Q 5.328125 45.90625 9.6875 54.953125 
Q 14.0625 64.015625 22.265625 68.40625 
Q 30.46875 72.796875 41.15625 72.796875 
Q 48.921875 72.796875 55.1875 70.28125 
Q 61.46875 67.78125 65.03125 63.28125 
Q 68.609375 58.796875 70.453125 51.5625 
L 61.921875 49.21875 
Q 60.296875 54.6875 57.90625 57.8125 
Q 55.515625 60.9375 51.0625 62.8125 
Q 46.625 64.703125 41.21875 64.703125 
Q 34.71875 64.703125 29.984375 62.71875 
Q 25.25 60.75 22.34375 57.515625 
Q 19.4375 54.296875 17.828125 50.4375 
Q 15.09375 43.796875 15.09375 36.03125 
Q 15.09375 26.46875 18.390625 20.015625 
Q 21.6875 13.578125 27.984375 10.453125 
Q 34.28125 7.328125 41.359375 7.328125 
Q 47.515625 7.328125 53.375 9.6875 
Q 59.234375 12.0625 62.25 14.75 
L 62.25 28.078125 
z
" id="ArialMT-71"/>
      </defs>
      <g style="fill:#262626;" transform="translate(63.47875 427.003828)scale(0.11 -0.11)">
       <use xlink:href="#ArialMT-126"/>
       <use x="58.398438" xlink:href="#ArialMT-110"/>
       <use x="114.013672" xlink:href="#ArialMT-111"/>
       <use x="169.628906" xlink:href="#ArialMT-40"/>
       <use x="202.929688" xlink:href="#ArialMT-67"/>
       <use x="275.146484" xlink:href="#ArialMT-71"/>
       <use x="352.929688" xlink:href="#ArialMT-41"/>
       <use x="386.230469" xlink:href="#ArialMT-32"/>
       <use x="414.013672" xlink:href="#ArialMT-53"/>
       <use x="469.628906" xlink:href="#ArialMT-120"/>
      </g>
     </g>
    </g>
    <g id="ytick_6">
     <g id="line2d_9">
      <path clip-path="url(#paefa51f008)" d="M 130.135781 367.56 
L 409.135781 367.56 
" style="fill:none;stroke:#ffffff;stroke-linecap:round;"/>
     </g>
     <g id="text_9">
      <!-- ~keep 5x -->
      <g style="fill:#262626;" transform="translate(75.687031 371.496797)scale(0.11 -0.11)">
       <use xlink:href="#ArialMT-126"/>
       <use x="58.398438" xlink:href="#ArialMT-107"/>
       <use x="108.398438" xlink:href="#ArialMT-101"/>
       <use x="164.013672" xlink:href="#ArialMT-101"/>
       <use x="219.628906" xlink:href="#ArialMT-112"/>
       <use x="275.244141" xlink:href="#ArialMT-32"/>
       <use x="303.027344" xlink:href="#ArialMT-53"/>
       <use x="358.642578" xlink:href="#ArialMT-120"/>
      </g>
     </g>
    </g>
    <g id="ytick_7">
     <g id="line2d_10">
      <path clip-path="url(#paefa51f008)" d="M 130.135781 312.12 
L 409.135781 312.12 
" style="fill:none;stroke:#ffffff;stroke-linecap:round;"/>
     </g>
     <g id="text_10">
      <!-- equal weights -->
      <defs>
       <path d="M 16.15625 0 
L 0.296875 51.859375 
L 9.375 51.859375 
L 17.625 21.921875 
L 20.703125 10.796875 
Q 20.90625 11.625 23.390625 21.484375 
L 31.640625 51.859375 
L 40.671875 51.859375 
L 48.4375 21.78125 
L 51.03125 11.859375 
L 54 21.875 
L 62.890625 51.859375 
L 71.4375 51.859375 
L 55.21875 0 
L 46.09375 0 
L 37.84375 31.0625 
L 35.84375 39.890625 
L 25.34375 0 
z
" id="ArialMT-119"/>
       <path d="M 6.59375 0 
L 6.59375 71.578125 
L 15.375 71.578125 
L 15.375 45.90625 
Q 21.53125 53.03125 30.90625 53.03125 
Q 36.671875 53.03125 40.921875 50.75 
Q 45.171875 48.484375 47 44.484375 
Q 48.828125 40.484375 48.828125 32.859375 
L 48.828125 0 
L 40.046875 0 
L 40.046875 32.859375 
Q 40.046875 39.453125 37.1875 42.453125 
Q 34.328125 45.453125 29.109375 45.453125 
Q 25.203125 45.453125 21.75 43.421875 
Q 18.3125 41.40625 16.84375 37.9375 
Q 15.375 34.46875 15.375 28.375 
L 15.375 0 
z
" id="ArialMT-104"/>
      </defs>
      <g style="fill:#262626;" transform="translate(53.3725 316.056797)scale(0.11 -0.11)">
       <use xlink:href="#ArialMT-101"/>
       <use x="55.615234" xlink:href="#ArialMT-113"/>
       <use x="111.230469" xlink:href="#ArialMT-117"/>
       <use x="166.845703" xlink:href="#ArialMT-97"/>
       <use x="222.460938" xlink:href="#ArialMT-108"/>
       <use x="244.677734" xlink:href="#ArialMT-32"/>
       <use x="272.460938" xlink:href="#ArialMT-119"/>
       <use x="344.677734" xlink:href="#ArialMT-101"/>
       <use x="400.292969" xlink:href="#ArialMT-105"/>
       <use x="422.509766" xlink:href="#ArialMT-103"/>
       <use x="478.125" xlink:href="#ArialMT-104"/>
       <use x="533.740234" xlink:href="#ArialMT-116"/>
       <use x="561.523438" xlink:href="#ArialMT-115"/>
      </g>
     </g>
    </g>
    <g id="ytick_8">
     <g id="line2d_11">
      <path clip-path="url(#paefa51f008)" d="M 130.135781 256.68 
L 409.135781 256.68 
" style="fill:none;stroke:#ffffff;stroke-linecap:round;"/>
     </g>
     <g id="text_11">
      <!-- ~gc(39%) alone -->
      <g style="fill:#262626;" transform="translate(43.285156 260.683828)scale(0.11 -0.11)">
       <use xlink:href="#ArialMT-126"/>
       <use x="58.398438" xlink:href="#ArialMT-103"/>
       <use x="114.013672" xlink:href="#ArialMT-99"/>
       <use x="164.013672" xlink:href="#ArialMT-40"/>
       <use x="197.314453" xlink:href="#ArialMT-51"/>
       <use x="252.929688" xlink:href="#ArialMT-57"/>
       <use x="308.544922" xlink:href="#ArialMT-37"/>
       <use x="397.460938" xlink:href="#ArialMT-41"/>
       <use x="430.761719" xlink:href="#ArialMT-32"/>
       <use x="458.544922" xlink:href="#ArialMT-97"/>
       <use x="514.160156" xlink:href="#ArialMT-108"/>
       <use x="536.376953" xlink:href="#ArialMT-111"/>
       <use x="591.992188" xlink:href="#ArialMT-110"/>
       <use x="647.607422" xlink:href="#ArialMT-101"/>
      </g>
     </g>
    </g>
    <g id="ytick_9">
     <g id="line2d_12">
      <path clip-path="url(#paefa51f008)" d="M 130.135781 201.24 
L 409.135781 201.24 
" style="fill:none;stroke:#ffffff;stroke-linecap:round;"/>
     </g>
     <g id="text_12">
      <!-- ~unique_kmers alone -->
      <g style="fill:#262626;" transform="translate(15.154375 205.176797)scale(0.11 -0.11)">
       <use xlink:href="#ArialMT-126"/>
       <use x="58.398438" xlink:href="#ArialMT-117"/>
       <use x="114.013672" xlink:href="#ArialMT-110"/>
       <use x="169.628906" xlink:href="#ArialMT-105"/>
       <use x="191.845703" xlink:href="#ArialMT-113"/>
       <use x="247.460938" xlink:href="#ArialMT-117"/>
       <use x="303.076172" xlink:href="#ArialMT-101"/>
       <use x="358.691406" xlink:href="#ArialMT-95"/>
       <use x="414.306641" xlink:href="#ArialMT-107"/>
       <use x="464.306641" xlink:href="#ArialMT-109"/>
       <use x="547.607422" xlink:href="#ArialMT-101"/>
       <use x="603.222656" xlink:href="#ArialMT-114"/>
       <use x="636.523438" xlink:href="#ArialMT-115"/>
       <use x="686.523438" xlink:href="#ArialMT-32"/>
       <use x="714.306641" xlink:href="#ArialMT-97"/>
       <use x="769.921875" xlink:href="#ArialMT-108"/>
       <use x="792.138672" xlink:href="#ArialMT-111"/>
       <use x="847.753906" xlink:href="#ArialMT-110"/>
       <use x="903.369141" xlink:href="#ArialMT-101"/>
      </g>
     </g>
    </g>
    <g id="ytick_10">
     <g id="line2d_13">
      <path clip-path="url(#paefa51f008)" d="M 130.135781 145.8 
L 409.135781 145.8 
" style="fill:none;stroke:#ffffff;stroke-linecap:round;"/>
     </g>
     <g id="text_13">
      <!-- ~codon_optimize alone -->
      <g style="fill:#262626;" transform="translate(7.2 149.736797)scale(0.11 -0.11)">
       <use xlink:href="#ArialMT-126"/>
       <use x="58.398438" xlink:href="#ArialMT-99"/>
       <use x="108.398438" xlink:href="#ArialMT-111"/>
       <use x="164.013672" xlink:href="#ArialMT-100"/>
       <use x="219.628906" xlink:href="#ArialMT-111"/>
       <use x="275.244141" xlink:href="#ArialMT-110"/>
       <use x="330.859375" xlink:href="#ArialMT-95"/>
       <use x="386.474609" xlink:href="#ArialMT-111"/>
       <use x="442.089844" xlink:href="#ArialMT-112"/>
       <use x="497.705078" xlink:href="#ArialMT-116"/>
       <use x="525.488281" xlink:href="#ArialMT-105"/>
       <use x="547.705078" xlink:href="#ArialMT-109"/>
       <use x="631.005859" xlink:href="#ArialMT-105"/>
       <use x="653.222656" xlink:href="#ArialMT-122"/>
       <use x="703.222656" xlink:href="#ArialMT-101"/>
       <use x="758.837891" xlink:href="#ArialMT-32"/>
       <use x="786.621094" xlink:href="#ArialMT-97"/>
       <use x="842.236328" xlink:href="#ArialMT-108"/>
       <use x="864.453125" xlink:href="#ArialMT-111"/>
       <use x="920.068359" xlink:href="#ArialMT-110"/>
       <use x="975.683594" xlink:href="#ArialMT-101"/>
      </g>
     </g>
    </g>
    <g id="ytick_11">
     <g id="line2d_14">
      <path clip-path="url(#paefa51f008)" d="M 130.135781 90.36 
L 409.135781 90.36 
" style="fill:none;stroke:#ffffff;stroke-linecap:round;"/>
     </g>
     <g id="text_14">
      <!-- ~no(CG) alone -->
      <g style="fill:#262626;" transform="translate(48.183594 94.363828)scale(0.11 -0.11)">
       <use xlink:href="#ArialMT-126"/>
       <use x="58.398438" xlink:href="#ArialMT-110"/>
       <use x="114.013672" xlink:href="#ArialMT-111"/>
       <use x="169.628906" xlink:href="#ArialMT-40"/>
       <use x="202.929688" xlink:href="#ArialMT-67"/>
       <use x="275.146484" xlink:href="#ArialMT-71"/>
       <use x="352.929688" xlink:href="#ArialMT-41"/>
       <use x="386.230469" xlink:href="#ArialMT-32"/>
       <use x="414.013672" xlink:href="#ArialMT-97"/>
       <use x="469.628906" xlink:href="#ArialMT-108"/>
       <use x="491.845703" xlink:href="#ArialMT-111"/>
       <use x="547.460938" xlink:href="#ArialMT-110"/>
       <use x="603.076172" xlink:href="#ArialMT-101"/>
      </g>
     </g>
    </g>
    <g id="ytick_12">
     <g id="line2d_15">
      <path clip-path="url(#paefa51f008)" d="M 130.135781 34.92 
L 409.135781 34.92 
" style="fill:none;stroke:#ffffff;stroke-linecap:round;"/>
     </g>
     <g id="text_15">
      <!-- ~keep alone -->
      <g style="fill:#262626;" transform="translate(60.391875 38.856797)scale(0.11 -0.11)">
       <use xlink:href="#ArialMT-126"/>
       <use x="58.398438" xlink:href="#ArialMT-107"/>
       <use x="108.398438" xlink:href="#ArialMT-101"/>
       <use x="164.013672" xlink:href="#ArialMT-101"/>
       <use x="219.628906" xlink:href="#ArialMT-112"/>
       <use x="275.244141" xlink:href="#ArialMT-32"/>
       <use x="303.027344" xlink:href="#ArialMT-97"/>
       <use x="358.642578" xlink:href="#ArialMT-108"/>
       <use x="380.859375" xlink:href="#ArialMT-111"/>
       <use x="436.474609" xlink:href="#ArialMT-110"/>
       <use x="492.089844" xlink:href="#ArialMT-101"/>
      </g>
     </g>
    </g>
   </g>
   <g id="patch_3">
    <path clip-path="url(#paefa51f008)" d="M -82905.647043 658.62 
L -82905.647043 658.62 
L -82905.647043 653.076 
L -82905.647043 653.076 
z
" style="fill:#4c72b0;stroke:#ffffff;stroke-linejoin:miter;"/>
   </g>
   <g id="patch_4">
    <path clip-path="url(#paefa51f008)" d="M -82905.647043 603.18 
L 358.623593 603.18 
L 358.623593 597.636 
L -82905.647043 597.636 
z
" style="fill:#4c72b0;stroke:#ffffff;stroke-linejoin:miter;"/>
   </g>
   <g id="patch_5">
    <path clip-path="url(#paefa51f008)" d="M -82905.647043 547.74 
L 353.516152 547.74 
L 353.516152 542.196 
L -82905.647043 542.196 
z
" style="fill:#4c72b0;stroke:#ffffff;stroke-linejoin:miter;"/>
   </g>
   <g id="patch_6">
    <path clip-path="url(#paefa51f008)" d="M -82905.647043 492.3 
L 385.921925 492.3 
L 385.921925 486.756 
L -82905.647043 486.756 
z
" style="fill:#4c72b0;stroke:#ffffff;stroke-linejoin:miter;"/>
   </g>
   <g id="patch_7">
    <path clip-path="url(#paefa51f008)" d="M -82905.647043 436.86 
L 360.177043 436.86 
L 360.177043 431.316 
L -82905.647043 431.316 
z
" style="fill:#4c72b0;stroke:#ffffff;stroke-linejoin:miter;"/>
   </g>
   <g id="patch_8">
    <path clip-path="url(#paefa51f008)" d="M -82905.647043 381.42 
L 298.491696 381.42 
L 298.491696 375.876 
L -82905.647043 375.876 
z
" style="fill:#4c72b0;stroke:#ffffff;stroke-linejoin:miter;"/>
   </g>
   <g id="patch_9">
    <path clip-path="url(#paefa51f008)" d="M -82905.647043 325.98 
L 353.411488 325.98 
L 353.411488 320.436 
L -82905.647043 320.436 
z
" style="fill:#4c72b0;stroke:#ffffff;stroke-linejoin:miter;"/>
   </g>
   <g id="patch_10">
    <path clip-path="url(#paefa51f008)" d="M -82905.647043 270.54 
L 388.724446 270.54 
L 388.724446 264.996 
L -82905.647043 264.996 
z
" style="fill:#4c72b0;stroke:#ffffff;stroke-linejoin:miter;"/>
   </g>
   <g id="patch_11">
    <path clip-path="url(#paefa51f008)" d="M -82905.647043 215.1 
L 344.744571 215.1 
L 344.744571 209.556 
L -82905.647043 209.556 
z
" style="fill:#4c72b0;stroke:#ffffff;stroke-linejoin:miter;"/>
   </g>
   <g id="patch_12">
    <path clip-path="url(#paefa51f008)" d="M -82905.647043 159.66 
L 395.193226 159.66 
L 395.193226 154.116 
L -82905.647043 154.116 
z
" style="fill:#4c72b0;stroke:#ffffff;stroke-linejoin:miter;"/>
   </g>
   <g id="patch_13">
    <path clip-path="url(#paefa51f008)" d="M -82905.647043 104.22 
L 311.6395 104.22 
L 311.6395 98.676 
L -82905.647043 98.676 
z
" style="fill:#4c72b0;stroke:#ffffff;stroke-linejoin:miter;"/>
   </g>
   <g id="patch_14">
    <path clip-path="url(#paefa51f008)" d="M -82905.647043 48.78 
L -82905.647043 48.78 
L -82905.647043 43.236 
L -82905.647043 43.236 
z
" style="fill:#4c72b0;stroke:#ffffff;stroke-linejoin:miter;"/>
   </g>
   <g id="patch_15">
    <path clip-path="url(#paefa51f008)" d="M -82905.647043 653.076 
L 307.766287 653.076 
L 307.766287 647.532 
L -82905.647043 647.532 
z
" style="fill:#dd8452;stroke:#ffffff;stroke-linejoin:miter;"/>
   </g>
   <g id="patch_16">
    <path clip-path="url(#paefa51f008)" d="M -82905.647043 597.636 
L 291.041881 597.636 
L 291.041881 592.092 
L -82905.647043 592.092 
z
" style="fill:#dd8452;stroke:#ffffff;stroke-linejoin:miter;"/>
   </g>
   <g id="patch_17">
    <path clip-path="url(#paefa51f008)" d="M -82905.647043 542.196 
L 293.331961 542.196 
L 293.331961 536.652 
L -82905.647043 536.652 
z
" style="fill:#dd8452;stroke:#ffffff;stroke-linejoin:miter;"/>
   </g>
   <g id="patch_18">
    <path clip-path="url(#paefa51f008)" d="M -82905.647043 486.756 
L 330.158172 486.756 
L 330.158172 481.212 
L -82905.647043 481.212 
z
" style="fill:#dd8452;stroke:#ffffff;stroke-linejoin:miter;"/>
   </g>
   <g id="patch_19">
    <path clip-path="url(#paefa51f008)" d="M -82905.647043 431.316 
L 142.817599 431.316 
L 142.817599 425.772 
L -82905.647043 425.772 
z
" style="fill:#dd8452;stroke:#ffffff;stroke-linejoin:miter;"/>
   </g>
   <g id="patch_20">
    <path clip-path="url(#paefa51f008)" d="M -82905.647043 375.876 
L 307.951669 375.876 
L 307.951669 370.332 
L -82905.647043 370.332 
z
" style="fill:#dd8452;stroke:#ffffff;stroke-linejoin:miter;"/>
   </g>
   <g id="patch_21">
    <path clip-path="url(#paefa51f008)" d="M -82905.647043 320.436 
L 296.260677 320.436 
L 296.260677 314.892 
L -82905.647043 314.892 
z
" style="fill:#dd8452;stroke:#ffffff;stroke-linejoin:miter;"/>
   </g>
   <g id="patch_22">
    <path clip-path="url(#paefa51f008)" d="M -82905.647043 264.996 
L 316.181908 264.996 
L 316.181908 259.452 
L -82905.647043 259.452 
z
" style="fill:#dd8452;stroke:#ffffff;stroke-linejoin:miter;"/>
   </g>
   <g id="patch_23">
    <path clip-path="url(#paefa51f008)" d="M -82905.647043 209.556 
L 318.18557 209.556 
L 318.18557 204.012 
L -82905.647043 204.012 
z
" style="fill:#dd8452;stroke:#ffffff;stroke-linejoin:miter;"/>
   </g>
   <g id="patch_24">
    <path clip-path="url(#paefa51f008)" d="M -82905.647043 154.116 
L 345.730684 154.116 
L 345.730684 148.572 
L -82905.647043 148.572 
z
" style="fill:#dd8452;stroke:#ffffff;stroke-linejoin:miter;"/>
   </g>
   <g id="patch_25">
    <path clip-path="url(#paefa51f008)" d="M -82905.647043 98.676 
L -82905.647043 98.676 
L -82905.647043 93.132 
L -82905.647043 93.132 
z
" style="fill:#dd8452;stroke:#ffffff;stroke-linejoin:miter;"/>
   </g>
   <g id="patch_26">
    <path clip-path="url(#paefa51f008)" d="M -82905.647043 43.236 
L 307.766287 43.236 
L 307.766287 37.692 
L -82905.647043 37.692 
z
" style="fill:#dd8452;stroke:#ffffff;stroke-linejoin:miter;"/>
   </g>
   <g id="patch_27">
    <path clip-path="url(#paefa51f008)" d="M -82905.647043 647.532 
L 383.759983 647.532 
L 383.759983 641.988 
L -82905.647043 641.988 
z
" style="fill:#55a868;stroke:#ffffff;stroke-linejoin:miter;"/>
   </g>
   <g id="patch_28">
    <path clip-path="url(#paefa51f008)" d="M -82905.647043 592.092 
L 365.978227 592.092 
L 365.978227 586.548 
L -82905.647043 586.548 
z
" style="fill:#55a868;stroke:#ffffff;stroke-linejoin:miter;"/>
   </g>
   <g id="patch_29">
    <path clip-path="url(#paefa51f008)" d="M -82905.647043 536.652 
L 363.244677 536.652 
L 363.244677 531.108 
L -82905.647043 531.108 
z
" style="fill:#55a868;stroke:#ffffff;stroke-linejoin:miter;"/>
   </g>
   <g id="patch_30">
    <path clip-path="url(#paefa51f008)" d="M -82905.647043 481.212 
L 309.875295 481.212 
L 309.875295 475.668 
L -82905.647043 475.668 
z
" style="fill:#55a868;stroke:#ffffff;stroke-linejoin:miter;"/>
   </g>
   <g id="patch_31">
    <path clip-path="url(#paefa51f008)" d="M -82905.647043 425.772 
L 366.978974 425.772 
L 366.978974 420.228 
L -82905.647043 420.228 
z
" style="fill:#55a868;stroke:#ffffff;stroke-linejoin:miter;"/>
   </g>
   <g id="patch_32">
    <path clip-path="url(#paefa51f008)" d="M -82905.647043 370.332 
L 381.761643 370.332 
L 381.761643 364.788 
L -82905.647043 364.788 
z
" style="fill:#55a868;stroke:#ffffff;stroke-linejoin:miter;"/>
   </g>
   <g id="patch_33">
    <path clip-path="url(#paefa51f008)" d="M -82905.647043 314.892 
L 362.869898 314.892 
L 362.869898 309.348 
L -82905.647043 309.348 
z
" style="fill:#55a868;stroke:#ffffff;stroke-linejoin:miter;"/>
   </g>
   <g id="patch_34">
    <path clip-path="url(#paefa51f008)" d="M -82905.647043 259.452 
L 385.033269 259.452 
L 385.033269 253.908 
L -82905.647043 253.908 
z
" style="fill:#55a868;stroke:#ffffff;stroke-linejoin:miter;"/>
   </g>
   <g id="patch_35">
    <path clip-path="url(#paefa51f008)" d="M -82905.647043 204.012 
L 383.210234 204.012 
L 383.210234 198.468 
L -82905.647043 198.468 
z
" style="fill:#55a868;stroke:#ffffff;stroke-linejoin:miter;"/>
   </g>
   <g id="patch_36">
    <path clip-path="url(#paefa51f008)" d="M -82905.647043 148.572 
L -82905.647043 148.572 
L -82905.647043 143.028 
L -82905.647043 143.028 
z
" style="fill:#55a868;stroke:#ffffff;stroke-linejoin:miter;"/>
   </g>
   <g id="patch_37">
    <path clip-path="url(#paefa51f008)" d="M -82905.647043 93.132 
L 386.093473 93.132 
L 386.093473 87.588 
L -82905.647043 87.588 
z
" style="fill:#55a868;stroke:#ffffff;stroke-linejoin:miter;"/>
   </g>
   <g id="patch_38">
    <path clip-path="url(#paefa51f008)" d="M -82905.647043 37.692 
L 383.759983 37.692 
L 383.759983 32.148 
L -82905.647043 32.148 
z
" style="fill:#55a868;stroke:#ffffff;stroke-linejoin:miter;"/>
   </g>
   <g id="patch_39">
    <path clip-path="url(#paefa51f008)" d="M -82905.647043 641.988 
L 394.276977 641.988 
L 394.276977 636.444 
L -82905.647043 636.444 
z
" style="fill:#c44e52;stroke:#ffffff;stroke-linejoin:miter;"/>
   </g>
   <g id="patch_40">
    <path clip-path="url(#paefa51f008)" d="M -82905.647043 586.548 
L 142.817599 586.548 
L 142.817599 581.004 
L -82905.647043 581.004 
z
" style="fill:#c44e52;stroke:#ffffff;stroke-linejoin:miter;"/>
   </g>
   <g id="patch_41">
    <path clip-path="url(#paefa51f008)" d="M -82905.647043 531.108 
L -82905.647043 531.108 
L -82905.647043 525.564 
L -82905.647043 525.564 
z
" style="fill:#c44e52;stroke:#ffffff;stroke-linejoin:miter;"/>
   </g>
   <g id="patch_42">
    <path clip-path="url(#paefa51f008)" d="M -82905.647043 475.668 
L 212.980573 475.668 
L 212.980573 470.124 
L -82905.647043 470.124 
z
" style="fill:#c44e52;stroke:#ffffff;stroke-linejoin:miter;"/>
   </g>
   <g id="patch_43">
    <path clip-path="url(#paefa51f008)" d="M -82905.647043 420.228 
L -82905.647043 420.228 
L -82905.647043 414.684 
L -82905.647043 414.684 
z
" style="fill:#c44e52;stroke:#ffffff;stroke-linejoin:miter;"/>
   </g>
   <g id="patch_44">
    <path clip-path="url(#paefa51f008)" d="M -82905.647043 364.788 
L 229.277636 364.788 
L 229.277636 359.244 
L -82905.647043 359.244 
z
" style="fill:#c44e52;stroke:#ffffff;stroke-linejoin:miter;"/>
   </g>
   <g id="patch_45">
    <path clip-path="url(#paefa51f008)" d="M -82905.647043 309.348 
L -82905.647043 309.348 
L -82905.647043 303.804 
L -82905.647043 303.804 
z
" style="fill:#c44e52;stroke:#ffffff;stroke-linejoin:miter;"/>
   </g>
   <g id="patch_46">
    <path clip-path="url(#paefa51f008)" d="M -82905.647043 253.908 
L 242.787821 253.908 
L 242.787821 248.364 
L -82905.647043 248.364 
z
" style="fill:#c44e52;stroke:#ffffff;stroke-linejoin:miter;"/>
   </g>
   <g id="patch_47">
    <path clip-path="url(#paefa51f008)" d="M -82905.647043 198.468 
L -82905.647043 198.468 
L -82905.647043 192.924 
L -82905.647043 192.924 
z
" style="fill:#c44e52;stroke:#ffffff;stroke-linejoin:miter;"/>
   </g>
   <g id="patch_48">
    <path clip-path="url(#paefa51f008)" d="M -82905.647043 143.028 
L 396.453963 143.028 
L 396.453963 137.484 
L -82905.647043 137.484 
z
" style="fill:#c44e52;stroke:#ffffff;stroke-linejoin:miter;"/>
   </g>
   <g id="patch_49">
    <path clip-path="url(#paefa51f008)" d="M -82905.647043 87.588 
L 394.829516 87.588 
L 394.829516 82.044 
L -82905.647043 82.044 
z
" style="fill:#c44e52;stroke:#ffffff;stroke-linejoin:miter;"/>
   </g>
   <g id="patch_50">
    <path clip-path="url(#paefa51f008)" d="M -82905.647043 32.148 
L 394.276977 32.148 
L 394.276977 26.604 
L -82905.647043 26.604 
z
" style="fill:#c44e52;stroke:#ffffff;stroke-linejoin:miter;"/>
   </g>
   <g id="patch_51">
    <path clip-path="url(#paefa51f008)" d="M -82905.647043 636.444 
L 324.661889 636.444 
L 324.661889 630.9 
L -82905.647043 630.9 
z
" style="fill:#8172b3;stroke:#ffffff;stroke-linejoin:miter;"/>
   </g>
   <g id="patch_52">
    <path clip-path="url(#paefa51f008)" d="M -82905.647043 581.004 
L 258.429535 581.004 
L 258.429535 575.46 
L -82905.647043 575.46 
z
" style="fill:#8172b3;stroke:#ffffff;stroke-linejoin:miter;"/>
   </g>
   <g id="patch_53">
    <path clip-path="url(#paefa51f008)" d="M -82905.647043 525.564 
L 272.082281 525.564 
L 272.082281 520.02 
L -82905.647043 520.02 
z
" style="fill:#8172b3;stroke:#ffffff;stroke-linejoin:miter;"/>
   </g>
   <g id="patch_54">
    <path clip-path="url(#paefa51f008)" d="M -82905.647043 470.124 
L 329.351678 470.124 
L 329.351678 464.58 
L -82905.647043 464.58 
z
" style="fill:#8172b3;stroke:#ffffff;stroke-linejoin:miter;"/>
   </g>
   <g id="patch_55">
    <path clip-path="url(#paefa51f008)" d="M -82905.647043 414.684 
L 274.410573 414.684 
L 274.410573 409.14 
L -82905.647043 409.14 
z
" style="fill:#8172b3;stroke:#ffffff;stroke-linejoin:miter;"/>
   </g>
   <g id="patch_56">
    <path clip-path="url(#paefa51f008)" d="M -82905.647043 359.244 
L 319.73735 359.244 
L 319.73735 353.7 
L -82905.647043 353.7 
z
" style="fill:#8172b3;stroke:#ffffff;stroke-linejoin:miter;"/>
   </g>
   <g id="patch_57">
    <path clip-path="url(#paefa51f008)" d="M -82905.647043 303.804 
L 275.260639 303.804 
L 275.260639 298.26 
L -82905.647043 298.26 
z
" style="fill:#8172b3;stroke:#ffffff;stroke-linejoin:miter;"/>
   </g>
   <g id="patch_58">
    <path clip-path="url(#paefa51f008)" d="M -82905.647043 248.364 
L 252.047889 248.364 
L 252.047889 242.82 
L -82905.647043 242.82 
z
" style="fill:#8172b3;stroke:#ffffff;stroke-linejoin:miter;"/>
   </g>
   <g id="patch_59">
    <path clip-path="url(#paefa51f008)" d="M -82905.647043 192.924 
L 332.824762 192.924 
L 332.824762 187.38 
L -82905.647043 187.38 
z
" style="fill:#8172b3;stroke:#ffffff;stroke-linejoin:miter;"/>
   </g>
   <g id="patch_60">
    <path clip-path="url(#paefa51f008)" d="M -82905.647043 137.484 
L 352.945731 137.484 
L 352.945731 131.94 
L -82905.647043 131.94 
z
" style="fill:#8172b3;stroke:#ffffff;stroke-linejoin:miter;"/>
   </g>
   <g id="patch_61">
    <path clip-path="url(#paefa51f008)" d="M -82905.647043 82.044 
L 323.767383 82.044 
L 323.767383 76.5 
L -82905.647043 76.5 
z
" style="fill:#8172b3;stroke:#ffffff;stroke-linejoin:miter;"/>
   </g>
   <g id="patch_62">
    <path clip-path="url(#paefa51f008)" d="M -82905.647043 26.604 
L 324.661889 26.604 
L 324.661889 21.06 
L -82905.647043 21.06 
z
" style="fill:#8172b3;stroke:#ffffff;stroke-linejoin:miter;"/>
   </g>
   <g id="patch_63">
    <path d="M 130.135781 672.48 
L 130.135781 7.2 
" style="fill:none;stroke:#ffffff;stroke-linecap:square;stroke-linejoin:miter;stroke-width:1.25;"/>
   </g>
   <g id="patch_64">
    <path d="M 409.135781 672.48 
L 409.135781 7.2 
" style="fill:none;stroke:#ffffff;stroke-linecap:square;stroke-linejoin:miter;stroke-width:1.25;"/>
   </g>
   <g id="patch_65">
    <path d="M 130.135781 672.48 
L 409.135781 672.48 
" style="fill:none;stroke:#ffffff;stroke-linecap:square;stroke-linejoin:miter;stroke-width:1.25;"/>
   </g>
   <g id="patch_66">
    <path d="M 130.135781 7.2 
L 409.135781 7.2 
" style="fill:none;stroke:#ffffff;stroke-linecap:square;stroke-linejoin:miter;stroke-width:1.25;"/>
   </g>
   <g id="legend_1">
    <g id="patch_67">
     <path d="M 432.985781 24.973594 
L 454.985781 24.973594 
L 454.985781 17.273594 
L 432.985781 17.273594 
z
" style="fill:#4c72b0;stroke:#ffffff;stroke-linejoin:miter;"/>
    </g>
    <g id="text_16">
     <!-- ~keep -->
     <g style="fill:#262626;" transform="translate(463.785781 24.973594)scale(0.11 -0.11)">
      <use xlink:href="#ArialMT-126"/>
      <use x="58.398438" xlink:href="#ArialMT-107"/>
      <use x="108.398438" xlink:href="#ArialMT-101"/>
      <use x="164.013672" xlink:href="#ArialMT-101"/>
      <use x="219.628906" xlink:href="#ArialMT-112"/>
     </g>
    </g>
    <g id="patch_68">
     <path d="M 432.985781 40.6675 
L 454.985781 40.6675 
L 454.985781 32.9675 
L 432.985781 32.9675 
z
" style="fill:#dd8452;stroke:#ffffff;stroke-linejoin:miter;"/>
    </g>
    <g id="text_17">
     <!-- ~no(CG) -->
     <g style="fill:#262626;" transform="translate(463.785781 40.6675)scale(0.11 -0.11)">
      <use xlink:href="#ArialMT-126"/>
      <use x="58.398438" xlink:href="#ArialMT-110"/>
      <use x="114.013672" xlink:href="#ArialMT-111"/>
      <use x="169.628906" xlink:href="#ArialMT-40"/>
      <use x="202.929688" xlink:href="#ArialMT-67"/>
      <use x="275.146484" xlink:href="#ArialMT-71"/>
      <use x="352.929688" xlink:href="#ArialMT-41"/>
     </g>
    </g>
    <g id="patch_69">
     <path d="M 432.985781 56.35625 
L 454.985781 56.35625 
L 454.985781 48.65625 
L 432.985781 48.65625 
z
" style="fill:#55a868;stroke:#ffffff;stroke-linejoin:miter;"/>
    </g>
    <g id="text_18">
     <!-- ~codon_optimize -->
     <g style="fill:#262626;" transform="translate(463.785781 56.35625)scale(0.11 -0.11)">
      <use xlink:href="#ArialMT-126"/>
      <use x="58.398438" xlink:href="#ArialMT-99"/>
      <use x="108.398438" xlink:href="#ArialMT-111"/>
      <use x="164.013672" xlink:href="#ArialMT-100"/>
      <use x="219.628906" xlink:href="#ArialMT-111"/>
      <use x="275.244141" xlink:href="#ArialMT-110"/>
      <use x="330.859375" xlink:href="#ArialMT-95"/>
      <use x="386.474609" xlink:href="#ArialMT-111"/>
      <use x="442.089844" xlink:href="#ArialMT-112"/>
      <use x="497.705078" xlink:href="#ArialMT-116"/>
      <use x="525.488281" xlink:href="#ArialMT-105"/>
      <use x="547.705078" xlink:href="#ArialMT-109"/>
      <use x="631.005859" xlink:href="#ArialMT-105"/>
      <use x="653.222656" xlink:href="#ArialMT-122"/>
      <use x="703.222656" xlink:href="#ArialMT-101"/>
     </g>
    </g>
    <g id="patch_70">
     <path d="M 432.985781 71.916094 
L 454.985781 71.916094 
L 454.985781 64.216094 
L 432.985781 64.216094 
z
" style="fill:#c44e52;stroke:#ffffff;stroke-linejoin:miter;"/>
    </g>
    <g id="text_19">
     <!-- ~unique_kmers -->
     <g style="fill:#262626;" transform="translate(463.785781 71.916094)scale(0.11 -0.11)">
      <use xlink:href="#ArialMT-126"/>
      <use x="58.398438" xlink:href="#ArialMT-117"/>
      <use x="114.013672" xlink:href="#ArialMT-110"/>
      <use x="169.628906" xlink:href="#ArialMT-105"/>
      <use x="191.845703" xlink:href="#ArialMT-113"/>
      <use x="247.460938" xlink:href="#ArialMT-117"/>
      <use x="303.076172" xlink:href="#ArialMT-101"/>
      <use x="358.691406" xlink:href="#ArialMT-95"/>
      <use x="414.306641" xlink:href="#ArialMT-107"/>
      <use x="464.306641" xlink:href="#ArialMT-109"/>
      <use x="547.607422" xlink:href="#ArialMT-101"/>
      <use x="603.222656" xlink:href="#ArialMT-114"/>
      <use x="636.523438" xlink:href="#ArialMT-115"/>
     </g>
    </g>
    <g id="patch_71">
     <path d="M 432.985781 87.61 
L 454.985781 87.61 
L 454.985781 79.91 
L 432.985781 79.91 
z
" style="fill:#8172b3;stroke:#ffffff;stroke-linejoin:miter;"/>
    </g>
    <g id="text_20">
     <!-- ~gc(39%) -->
     <g style="fill:#262626;" transform="translate(463.785781 87.61)scale(0.11 -0.11)">
      <use xlink:href="#ArialMT-126"/>
      <use x="58.398438" xlink:href="#ArialMT-103"/>
      <use x="114.013672" xlink:href="#ArialMT-99"/>
      <use x="164.013672" xlink:href="#ArialMT-40"/>
      <use x="197.314453" xlink:href="#ArialMT-51"/>
      <use x="252.929688" xlink:href="#ArialMT-57"/>
      <use x="308.544922" xlink:href="#ArialMT-37"/>
      <use x="397.460938" xlink:href="#ArialMT-41"/>
     </g>
    </g>
   </g>
  </g>
 </g>
 <defs>
  <clipPath id="paefa51f008">
   <rect height="665.28" width="279" x="130.135781" y="7.2"/>
  </clipPath>
 </defs>
</svg>
